# xmcd
# Copyright (C) 1995-1998 Ti Kan
#
# Track frame offsets:
#       150
#       13851
#       30819
#       51144
#       68024
#       81400
#       95478
#       117462
#       130888
#       147576
#       167303
#       191622
#       209031
#       233662
#       255651
#
# Disc length: 3819 seconds
#
# Revision: 0
# Processed by: cddbd v1.5.2PL0 Copyright (c) Steve Scherf et al.
# Submitted via: CD-Import v1.0
#
DISCID=cf0ee90f
DTITLE=Gogol Bordello - Gypsy Punks
DYEAR=2005
DGENRE=
TTITLE0=Sally
TTITLE1=	i Would Never Wanna Be Young Again
TTITLE2=Not A Crime
TTITLE3=Immigrant Punk
TTITLE4=60 Revolutions
TTITLE5=Avenue B
TTITLE6=Dogs Were Barking
TTITLE7=Oh No
TTITLE8=Start Wearing Purple
TTITLE9=Think Locally Fuck Globally
TTITLE10=Underdog World Strike
TTITLE11=Illumination
TTITLE12=Santa Marinella
TTITLE13=Undestructable
TTITLE14=Mishto!
EXTD=
EXTT0=
EXTT1=
EXTT2=
EXTT3=
EXTT4=
EXTT5=
EXTT6=
EXTT7=
EXTT8=
EXTT9=
EXTT10=
EXTT11=
EXTT12=
EXTT13=
EXTT14=
PLAYORDER=
